name rise36.2859peak64.2979fall75.1499.mot
datacolumns 19
datarows 27
range 17.13160500000000 17.17493100000000
endheader
time	ground_force1_vx	ground_force1_vy	ground_force1_vz	ground_force1_px	ground_force1_py	ground_force1_pz	ground_force2_vx	ground_force2_vy	ground_force2_vz	ground_force2_px	ground_force2_py	ground_force2_pz	ground_torque1_x	ground_torque1_y	ground_torque1_z	ground_torque2_x	ground_torque2_y	ground_torque2_z	
17.13160500000000	59.46508000000000	746.51432999999997	52.83239000000000	0.44327300000000	0.00000000000000	0.10511700000000	0.00000000000000	0.00000000000000	0.00000000000000	0.00000000000000	0.00000000000000	0.00000000000000	0.00000000000000	32.58267000000000	0.00000000000000	0.00000000000000	0.00000000000000	0.00000000000000	
17.13326900000000	59.02604600000000	749.73850900000002	52.99055400000000	0.44165500000000	0.00000000000000	0.10518300000000	0.00000000000000	0.00000000000000	0.00000000000000	0.00000000000000	0.00000000000000	0.00000000000000	0.00000000000000	32.61721800000000	0.00000000000000	0.00000000000000	0.00000000000000	0.00000000000000	
17.13493200000000	58.58319200000000	752.86572100000001	53.15458300000000	0.44003600000000	0.00000000000000	0.10525000000000	0.00000000000000	0.00000000000000	0.00000000000000	0.00000000000000	0.00000000000000	0.00000000000000	0.00000000000000	32.65740300000000	0.00000000000000	0.00000000000000	0.00000000000000	0.00000000000000	
17.13660500000000	58.13675000000000	755.89251100000001	53.32413200000000	0.43842000000000	0.00000000000000	0.10531900000000	0.00000000000000	0.00000000000000	0.00000000000000	0.00000000000000	0.00000000000000	0.00000000000000	0.00000000000000	32.70311500000000	0.00000000000000	0.00000000000000	0.00000000000000	0.00000000000000	
17.13826800000000	57.68690600000000	758.81544799999995	53.49875600000000	0.43680800000000	0.00000000000000	0.10538800000000	0.00000000000000	0.00000000000000	0.00000000000000	0.00000000000000	0.00000000000000	0.00000000000000	0.00000000000000	32.75416700000000	0.00000000000000	0.00000000000000	0.00000000000000	0.00000000000000	
17.13993800000000	57.23381100000000	761.63114700000006	53.67792000000000	0.43520200000000	0.00000000000000	0.10545900000000	0.00000000000000	0.00000000000000	0.00000000000000	0.00000000000000	0.00000000000000	0.00000000000000	0.00000000000000	32.81029500000000	0.00000000000000	0.00000000000000	0.00000000000000	0.00000000000000	
17.14160100000000	56.77757900000000	764.33629099999996	53.86100100000000	0.43360500000000	0.00000000000000	0.10553000000000	0.00000000000000	0.00000000000000	0.00000000000000	0.00000000000000	0.00000000000000	0.00000000000000	0.00000000000000	32.87116700000000	0.00000000000000	0.00000000000000	0.00000000000000	0.00000000000000	
17.14327200000000	56.31829100000000	766.92764799999998	54.04730000000000	0.43201700000000	0.00000000000000	0.10560100000000	0.00000000000000	0.00000000000000	0.00000000000000	0.00000000000000	0.00000000000000	0.00000000000000	0.00000000000000	32.93638600000000	0.00000000000000	0.00000000000000	0.00000000000000	0.00000000000000	
17.14493100000000	55.85600000000000	769.40209600000003	54.23604500000000	0.43044200000000	0.00000000000000	0.10567200000000	0.00000000000000	0.00000000000000	0.00000000000000	0.00000000000000	0.00000000000000	0.00000000000000	0.00000000000000	33.00550000000000	0.00000000000000	0.00000000000000	0.00000000000000	0.00000000000000	
17.14659900000000	55.39073300000000	771.75663699999996	54.42640200000000	0.42888000000000	0.00000000000000	0.10574300000000	0.00000000000000	0.00000000000000	0.00000000000000	0.00000000000000	0.00000000000000	0.00000000000000	0.00000000000000	33.07800300000000	0.00000000000000	0.00000000000000	0.00000000000000	0.00000000000000	
17.14826800000000	54.92249100000000	773.98842000000002	54.61748100000000	0.42733300000000	0.00000000000000	0.10581400000000	0.00000000000000	0.00000000000000	0.00000000000000	0.00000000000000	0.00000000000000	0.00000000000000	0.00000000000000	33.15334600000000	0.00000000000000	0.00000000000000	0.00000000000000	0.00000000000000	
17.14993400000000	54.45126000000000	776.09475599999996	54.80834500000000	0.42580300000000	0.00000000000000	0.10588500000000	0.00000000000000	0.00000000000000	0.00000000000000	0.00000000000000	0.00000000000000	0.00000000000000	0.00000000000000	33.23093900000000	0.00000000000000	0.00000000000000	0.00000000000000	0.00000000000000	
17.15160400000000	53.97700700000000	778.07313899999997	54.99801800000000	0.42429200000000	0.00000000000000	0.10595500000000	0.00000000000000	0.00000000000000	0.00000000000000	0.00000000000000	0.00000000000000	0.00000000000000	0.00000000000000	33.31016100000000	0.00000000000000	0.00000000000000	0.00000000000000	0.00000000000000	
17.15326900000000	53.49968600000000	779.92125799999997	55.18549300000000	0.42279900000000	0.00000000000000	0.10602400000000	0.00000000000000	0.00000000000000	0.00000000000000	0.00000000000000	0.00000000000000	0.00000000000000	0.00000000000000	33.39036200000000	0.00000000000000	0.00000000000000	0.00000000000000	0.00000000000000	
17.15493300000000	53.01924300000000	781.63701300000002	55.36974300000000	0.42132800000000	0.00000000000000	0.10609200000000	0.00000000000000	0.00000000000000	0.00000000000000	0.00000000000000	0.00000000000000	0.00000000000000	0.00000000000000	33.47087400000000	0.00000000000000	0.00000000000000	0.00000000000000	0.00000000000000	
17.15660000000000	52.53561600000000	783.21853399999998	55.54972500000000	0.41987800000000	0.00000000000000	0.10615900000000	0.00000000000000	0.00000000000000	0.00000000000000	0.00000000000000	0.00000000000000	0.00000000000000	0.00000000000000	33.55101200000000	0.00000000000000	0.00000000000000	0.00000000000000	0.00000000000000	
17.15826500000000	52.04873900000000	784.66418699999997	55.72439200000000	0.41845100000000	0.00000000000000	0.10622400000000	0.00000000000000	0.00000000000000	0.00000000000000	0.00000000000000	0.00000000000000	0.00000000000000	0.00000000000000	33.63008400000000	0.00000000000000	0.00000000000000	0.00000000000000	0.00000000000000	
17.15993900000000	51.55854700000000	785.97259099999997	55.89269900000000	0.41704800000000	0.00000000000000	0.10628800000000	0.00000000000000	0.00000000000000	0.00000000000000	0.00000000000000	0.00000000000000	0.00000000000000	0.00000000000000	33.70739600000000	0.00000000000000	0.00000000000000	0.00000000000000	0.00000000000000	
17.16160500000000	51.06497600000000	787.14262399999996	56.05361000000000	0.41567000000000	0.00000000000000	0.10634900000000	0.00000000000000	0.00000000000000	0.00000000000000	0.00000000000000	0.00000000000000	0.00000000000000	0.00000000000000	33.78225400000000	0.00000000000000	0.00000000000000	0.00000000000000	0.00000000000000	
17.16326500000000	50.56796700000000	788.17343900000003	56.20611100000000	0.41431700000000	0.00000000000000	0.10640900000000	0.00000000000000	0.00000000000000	0.00000000000000	0.00000000000000	0.00000000000000	0.00000000000000	0.00000000000000	33.85397400000000	0.00000000000000	0.00000000000000	0.00000000000000	0.00000000000000	
17.16493800000000	50.06746800000000	789.06446500000004	56.34921100000000	0.41299000000000	0.00000000000000	0.10646700000000	0.00000000000000	0.00000000000000	0.00000000000000	0.00000000000000	0.00000000000000	0.00000000000000	0.00000000000000	33.92188300000000	0.00000000000000	0.00000000000000	0.00000000000000	0.00000000000000	
17.16660300000000	49.56343900000000	789.81541700000002	56.48195200000000	0.41169000000000	0.00000000000000	0.10652300000000	0.00000000000000	0.00000000000000	0.00000000000000	0.00000000000000	0.00000000000000	0.00000000000000	0.00000000000000	33.98532600000000	0.00000000000000	0.00000000000000	0.00000000000000	0.00000000000000	
17.16827100000000	49.05584900000000	790.42629999999997	56.60341400000000	0.41041700000000	0.00000000000000	0.10657700000000	0.00000000000000	0.00000000000000	0.00000000000000	0.00000000000000	0.00000000000000	0.00000000000000	0.00000000000000	34.04367100000000	0.00000000000000	0.00000000000000	0.00000000000000	0.00000000000000	
17.16993300000000	48.54468300000000	790.89741500000002	56.71272500000000	0.40917100000000	0.00000000000000	0.10662800000000	0.00000000000000	0.00000000000000	0.00000000000000	0.00000000000000	0.00000000000000	0.00000000000000	0.00000000000000	34.09631200000000	0.00000000000000	0.00000000000000	0.00000000000000	0.00000000000000	
17.17160000000000	48.02994000000000	791.22935800000005	56.80906200000000	0.40795300000000	0.00000000000000	0.10667600000000	0.00000000000000	0.00000000000000	0.00000000000000	0.00000000000000	0.00000000000000	0.00000000000000	0.00000000000000	34.14267000000000	0.00000000000000	0.00000000000000	0.00000000000000	0.00000000000000	
17.17326500000000	47.51163600000000	791.42302500000005	56.89165900000000	0.40676300000000	0.00000000000000	0.10672200000000	0.00000000000000	0.00000000000000	0.00000000000000	0.00000000000000	0.00000000000000	0.00000000000000	0.00000000000000	34.18220300000000	0.00000000000000	0.00000000000000	0.00000000000000	0.00000000000000	
17.17493100000000	46.98980600000000	791.47960899999998	56.95981200000000	0.40560100000000	0.00000000000000	0.10676500000000	0.00000000000000	0.00000000000000	0.00000000000000	0.00000000000000	0.00000000000000	0.00000000000000	0.00000000000000	34.21440200000000	0.00000000000000	0.00000000000000	0.00000000000000	0.00000000000000	
